<?xml version="1.0" standalone="no"?><svg xmlns:xlink="http://www.w3.org/1999/xlink" xmlns="http://www.w3.org/2000/svg" viewBox="0 0 1000 999.9999999999999" preserveAspectRatio="xMaxYMax slice"><g transform="scale(2.487562189054726)"><rect x="0" y="0" width="402" height="402" fill="#ffffff"/><circle cx="33.5" cy="33.5" r="6.7" fill="#A855F7"/><circle cx="100.5" cy="33.5" r="6.7" fill="#F59E0B"/><circle cx="167.5" cy="33.5" r="6.7" fill="#A855F7"/><circle cx="234.5" cy="33.5" r="6.7" fill="#F59E0B"/><circle cx="301.5" cy="33.5" r="6.7" fill="#A855F7"/><circle cx="368.5" cy="33.5" r="6.7" fill="#F59E0B"/><circle cx="33.5" cy="100.5" r="6.7" fill="#A855F7"/><circle cx="100.5" cy="100.5" r="10.99" fill="#A855F7"/><circle cx="167.495" cy="100.495" r="15.275" fill="#F59E0B"/><circle cx="234.5" cy="100.5" r="17.42" fill="#F59E0B"/><circle cx="301.495" cy="100.495" r="15.275" fill="#F59E0B"/><circle cx="368.5" cy="100.5" r="10.99" fill="#F59E0B"/><circle cx="33.5" cy="167.5" r="6.7" fill="#F59E0B"/><circle cx="100.495" cy="167.495" r="15.275" fill="#F59E0B"/><circle cx="167.5" cy="167.5" r="23.85" fill="#F59E0B"/><circle cx="234.5" cy="167.5" r="28.14" fill="#A855F7"/><circle cx="301.5" cy="167.5" r="23.85" fill="#F59E0B"/><circle cx="368.495" cy="167.495" r="15.275" fill="#F59E0B"/><circle cx="33.5" cy="234.5" r="6.7" fill="#F59E0B"/><circle cx="100.5" cy="234.5" r="17.42" fill="#A855F7"/><circle cx="167.5" cy="234.5" r="28.14" fill="#A855F7"/><circle cx="234.5" cy="234.5" r="33.5" fill="#A855F7"/><circle cx="301.5" cy="234.5" r="28.14" fill="#F59E0B"/><circle cx="368.5" cy="234.5" r="17.42" fill="#F59E0B"/><circle cx="33.5" cy="301.5" r="6.7" fill="#A855F7"/><circle cx="100.495" cy="301.495" r="15.275" fill="#F59E0B"/><circle cx="167.5" cy="301.5" r="23.85" fill="#F59E0B"/><circle cx="234.5" cy="301.5" r="28.14" fill="#A855F7"/><circle cx="301.5" cy="301.5" r="23.85" fill="#F59E0B"/><circle cx="368.495" cy="301.495" r="15.275" fill="#A855F7"/><circle cx="33.5" cy="368.5" r="6.7" fill="#A855F7"/><circle cx="100.5" cy="368.5" r="10.99" fill="#A855F7"/><circle cx="167.495" cy="368.495" r="15.275" fill="#F59E0B"/><circle cx="234.5" cy="368.5" r="17.42" fill="#A855F7"/><circle cx="301.495" cy="368.495" r="15.275" fill="#F59E0B"/><circle cx="368.5" cy="368.5" r="10.99" fill="#A855F7"/></g></svg>